<svg xmlns:inkscape="http://www.inkscape.org/namespaces/inkscape" xmlns:sodipodi="http://sodipodi.sourceforge.net/DTD/sodipodi-0.dtd" xmlns="http://www.w3.org/2000/svg" xmlns:svg="http://www.w3.org/2000/svg" version="1.1" x="0px" y="0px" viewBox="0 0 128 160" enable-background="new 0 0 128 128" xml:space="preserve"><g><path d="m 42.790185,2.419925 c -17.51,0 -31.75,14.24 -31.75,31.75 0,11.99 6.86125,23.02109 17.53125,28.37109 1.51,6.94 4.78859,13.40828 9.55859,18.73828 3.25,3.63 4.9411,8.65125 4.6211,13.78125 l -1.76954,28.660165 c -0.03,0.48 0.13875,0.94859 0.46876,1.30859 0.32999,0.35 0.79124,0.55078 1.28124,0.55078 h 45.33985 c 0.49,0 0.95906,-0.21031 1.28906,-0.57031 0.33,-0.36 0.50094,-0.84008 0.46094,-1.33008 l -1.41016,-16.68946 h 9.83008 c 2.460005,0 4.749775,-1.12054 6.259775,-3.06054 1.51,-1.94 2.03968,-4.430085 1.42968,-6.830085 l -0.16992,-0.63867 c -0.03,-0.1 -0.0391,-0.20078 -0.0391,-0.30078 0,-0.37 0.17875,-0.71945 0.46875,-0.93945 1.05,-0.78 1.74109,-1.97149 1.87109,-3.27149 0.13,-1.23 -0.23976,-2.4582 -1.00976,-3.4082 l 0.55859,-0.46094 c 1.5,-1.24 2.09117,-3.31039 1.45117,-5.15039 l -0.96093,-2.78906 h 3.60937 c 1.69,0 3.24024,-0.78039 4.24024,-2.15039 0.99,-1.4 1.26976,-3.1107 0.75976,-4.7207 l -6.29883,-19.84961 c -0.07,-10.98 -4.38968,-21.28883 -12.179695,-29.04883 -7.81999,-7.79 -18.1907,-12.07032 -29.2207,-12.07032 -1,0 -2.03937,0.0489 -3.10937,0.12891 -5.98,-6.37 -14.35133,-10.00976 -23.11133,-10.00976 z m 0,3.49023 c 8.06,0 15.75156,3.46047 21.10156,9.48047 4.61,5.17 7.14844,11.83953 7.14844,18.76953 0,15.58 -12.67,28.25 -28.25,28.25 -4.19,0 -8.20899,-0.89016 -11.95899,-2.66016 -9.9,-4.61 -16.29101,-14.65984 -16.29101,-25.58984 0,-15.58 12.67,-28.25 28.25,-28.25 z m 26.2207,9.90039 c 10.1,0 19.59,3.91883 26.75,11.04883 7.190005,7.16 11.150395,16.70156 11.150395,26.85156 0,0.18 0.0301,0.3593 0.0801,0.5293 l 6.37891,20.10937 c 0.17,0.51 0.0802,1.08125 -0.25977,1.53125 -0.33,0.46 -0.85016,0.71875 -1.41015,0.71875 h -6.07032 c -0.57,0 -1.09969,0.27024 -1.42968,0.74024 -0.33,0.46 -0.40852,1.04984 -0.22852,1.58984 l 1.76953,5.11133 c 0.16,0.47 0.009,0.98883 -0.36133,1.29883 l -1.95898,1.59961 c -0.37,0.3 -0.60063,0.74093 -0.64063,1.21093 -0.04,0.47 0.11969,0.93883 0.42969,1.29883 l 1.07031,1.22071 c 0.3,0.33 0.31102,0.70062 0.29102,0.89062 -0.02,0.19 -0.11047,0.55008 -0.48047,0.83008 -1.18,0.88 -1.88086,2.28 -1.88086,3.75 0,0.38 0.0504,0.76016 0.15039,1.16015 l 0.16992,0.64844 c 0.34,1.34 0.0512,2.730325 -0.79883,3.820325 -0.85,1.08999 -2.120005,1.71093 -3.500005,1.71093 h -11.73046 -10.66993 c -1.88,0 -3.62992,-0.93 -4.66992,-2.5 l -3.35937,-5.041015 c -0.54,-0.8 -1.62164,-1.02024 -2.43164,-0.49024 -0.8,0.54 -1.02024,1.62164 -0.49024,2.43164 l 3.36133,5.039075 c 1.69,2.54 4.53008,4.06054 7.58008,4.06054 h 9.05859 l 1.27149,15.08985 h -41.57032 l 1.66016,-26.800785 c 0.38,-6.05001 -1.63,-12.00032 -5.5,-16.32032 -3.79,-4.25 -6.56109,-9.27945 -8.12109,-14.68945 3.26,1.11 6.67164,1.66992 10.18164,1.66992 17.51,0 31.75,-14.24 31.75,-31.75 0,-6.62 -2.0711,-13.01937 -5.8711,-18.35937 0.11,0 0.22008,-0.01 0.33008,-0.01 z m -27.90039,2.95899 c -5.01,0 -9.08008,4.07007 -9.08008,9.08007 v 1.50977 c 0,0.97 0.78,1.75 1.75,1.75 0.97,0 1.75,-0.78 1.75,-1.75 v -1.50977 c 0,-3.08 2.50008,-5.58008 5.58008,-5.58007 h 3.37109 c 3.08,0 5.58008,2.50007 5.58008,5.58007 0,2.3 -1.38148,4.34141 -3.52148,5.19141 l -0.56836,0.22852 c -2.99,1.18999 -4.91992,4.03023 -4.91992,7.24023 v 1.50977 c 0,0.97 0.78,1.75 1.75,1.75 0.97,0 1.75,-0.78 1.75,-1.75 v -1.50977 c 0,-1.77 1.05898,-3.34024 2.70898,-3.99023 l 0.57031,-0.22852 c 3.48,-1.38 5.73047,-4.69141 5.73047,-8.44141 0,-5.01 -4.07008,-9.08008 -9.08008,-9.08007 z m 1.67969,28.62109 c -1.12,0 -2.0293,0.9093 -2.0293,2.0293 0,1.12 0.9093,2.02929 2.0293,2.02929 1.12,0 2.03125,-0.90929 2.03125,-2.02929 0,-1.12 -0.91125,-2.0293 -2.03125,-2.0293 z"/></g><text x="0" y="143" fill="#000000" font-size="5px" font-weight="bold" font-family="'Helvetica Neue', Helvetica, Arial-Unicode, Arial, Sans-serif">Created by Alzam</text><text x="0" y="148" fill="#000000" font-size="5px" font-weight="bold" font-family="'Helvetica Neue', Helvetica, Arial-Unicode, Arial, Sans-serif">from the Noun Project</text></svg>